# xmcd
#
# Track frame offsets: 
#        150
#        14639
#        35480
#        67660
#        95175
#        108176
#        132927
#        149639
#        173756
#        188575
#        209280
#        235722
#        261501
#        286983
#        303929
#
# Disc length: 4300 seconds
#
# Revision: 0
# Processed by: cddbd v1.5.2PL0 Copyright (c) Steve Scherf et al.
# Submitted via: ExactAudioCopy v0.99pb5
#
DISCID=d710ca0f
DTITLE=Marcia Ball - 23 East Ardmore, Pa. Disc 1 1994-06-04
DYEAR=1994
DGENRE=Blues
TTITLE0=01 5:03
TTITLE1=02 Redbeans
TTITLE2=03 Facts Of Life
TTITLE3=04 All Night Lang
TTITLE4=05 As Long As I've Got You
TTITLE5=06 Why Do I
TTITLE6=07 I'm Gonna Forget About You
TTITLE7=08 Thats Enough Of That Stuff
TTITLE8=09 Mam's Cookin
TTITLE9=10 Mobile
TTITLE10=11 If This Is Love
TTITLE11=12 Just Kiss Me
TTITLE12=13 Big Shot
TTITLE13=14 Blue House
TTITLE14=15 If I Ever needed Love
EXTD=
EXTT0=
EXTT1=
EXTT2=
EXTT3=
EXTT4=
EXTT5=
EXTT6=
EXTT7=
EXTT8=
EXTT9=
EXTT10=
EXTT11=
EXTT12=
EXTT13=
EXTT14=
PLAYORDER=
